<?xml version="1.0" encoding="UTF-8" standalone="yes"?>
<svg version="1.2" viewBox="-0.01 -0.01 128.01 128.01" baseProfile="tiny-ps" xmlns="http://www.w3.org/2000/svg">
  <title>bimi-svg-tiny-12-ps</title>
  <defs id="defs1"/>
  <g id="surface1">
    <g id="g2">
      <path d="M 0,84.535382 C 0,37.842554 37.842554,0 84.535382,0 H 415.45936 c 46.69283,0 84.53538,37.842554 84.53538,84.535382 V 415.45936 c 0,46.69283 -37.84255,84.53538 -84.53538,84.53538 H 84.535382 C 37.842554,499.99474 0,462.15219 0,415.45936 Z m 0,0" transform="scale(0.255995)" id="path2" fill="#ffffff" fill-opacity="1" fill-rule="nonzero" stroke="#0078ff" stroke-width="0.01" stroke-linecap="butt" stroke-linejoin="round" stroke-miterlimit="10" stroke-opacity="1"/>
    </g>
    <path d="m 62.732955,27.229481 -0.507154,0.105553 v 59.422099 l -1.62959,-0.141592 C 54.232316,86.06977 47.054912,82.318882 42.632107,77.224162 30.934073,63.757521 35.009335,43.013075 50.939669,34.93206 l 1.838115,-0.934503 v -4.875898 l -0.937079,0.332096 c -6.932835,2.445672 -13.971221,8.899672 -17.40546,15.958652 -9.867641,20.286204 3.3879,43.249775 26.498211,45.903973 l 1.292345,0.149314 v 9.396526 h 3.375027 v -9.427418 l 0.731127,-0.100399 c 9.226618,-1.2666 14.892853,-3.71742 20.368584,-8.814716 C 104.50245,65.950905 97.932608,36.708394 74.657536,28.910562 71.202704,27.752086 64.666323,26.830454 62.732955,27.229484 m 5.921101,5.014915 c 7.383354,1.040053 15.000978,5.921099 19.112281,12.243804 11.183156,17.207233 0.03347,39.941683 -20.646619,42.096448 l -1.51889,0.157038 v -54.91177 l 0.731127,0.09524 c 0.401605,0.05407 1.446807,0.198229 2.322101,0.319226" id="path3" fill="#000000" fill-opacity="1" fill-rule="evenodd" stroke="none" stroke-width="0.659044"/>
  </g>
</svg>